<?xml version="1.0" encoding="UTF-8"?> <svg xmlns="http://www.w3.org/2000/svg" width="977" height="274" viewBox="0 0 977 274" fill="none"><path fill-rule="evenodd" clip-rule="evenodd" d="M138.95 35.3083L159.094 70.6165L179.238 35.3083L159.094 0L138.95 35.3083ZM56.7095 273.846H261.474L239.16 234.732H79.0255L56.7095 273.846ZM154.303 84.9072L45.0344 273.846H0L131.825 45.5074L154.303 84.9063V84.9072ZM164.183 84.486L273.15 273.417H318.185L186.66 45.0862L164.183 84.4851L164.183 84.486ZM116.716 203.686L136.038 174.282L143.215 185.205L147.27 183.099L158.402 206.26L169.465 183.193L173.506 185.271L180.741 174.283L200.057 203.621L169.465 187.907L158.402 210.973L147.27 187.811L116.716 203.687V203.686ZM176.133 177.272L173.506 181.262L169.465 179.186L158.402 202.252L147.27 179.09L143.215 181.197L140.641 177.278L158.406 150.296L176.133 177.271V177.272ZM137.356 172.278L158.368 140.3L179.423 172.278L177.413 175.33L158.407 146.409L139.362 175.333L137.356 172.278Z" fill="#FFC100"></path><path d="M424.557 54.3505L378.657 148.761H373.827L424.599 44.3861L473.999 148.761H469.256L424.557 54.3505ZM424.366 4.26074L350.281 165.053H388.316L424.366 86.7585L460.416 165.053H498.448L424.366 4.26074Z" fill="#202020"></path><path d="M658.348 165.557L645.008 152.208V149.128L658.348 162.477V165.557ZM658.348 157.958L645.008 144.609V141.528L658.348 154.877V157.958ZM658.348 150.359L645.008 137.009V133.929L658.348 147.278V150.359ZM658.348 142.76L645.008 129.409V126.329L658.348 139.678V142.76ZM658.348 135.365L645.008 122.015V118.73L658.348 132.08V135.365ZM658.348 127.766L645.008 114.416V111.335L658.348 124.684V127.766ZM658.348 120.167L645.008 106.817V103.735L658.348 117.086V120.167ZM658.348 112.567L645.008 99.2173V96.1359L658.348 109.486V112.567ZM658.348 104.967L645.008 91.6177V88.5363L658.348 101.886V104.967ZM658.348 97.5744L645.008 84.2243V81.1428L658.348 94.493V97.5744ZM658.348 89.9739L645.008 76.6238V73.5433L658.348 86.8934V89.9739ZM658.348 82.3743L645.008 69.0251V65.9437L658.348 79.2938V82.3743ZM658.348 74.7748L645.008 61.4255V58.345L658.348 71.6951V74.7748ZM658.348 67.3813L645.008 54.0321V50.9498L658.348 64.2999V67.3813ZM658.348 59.7826L645.008 46.4316V43.3502L658.348 56.7003V59.7826ZM658.348 52.1821L645.008 38.832V35.7515L658.348 49.1007V52.1821ZM658.348 44.5835L645.008 31.2333V28.1528L658.348 41.502V44.5835ZM658.348 37.1883L645.008 23.839V20.5541L658.348 33.9034V37.1883ZM658.348 29.5895L645.008 16.2394V13.1589L658.348 26.509V29.5895ZM658.348 21.99L645.008 8.63983V5.55841L658.348 18.9094V21.99ZM654.036 165.757H650.961L637.621 152.407H640.696L654.036 165.757ZM646.443 165.757H643.368L630.029 152.407H633.111L646.443 165.757ZM638.851 165.757H635.776L622.437 152.407H625.512L638.851 165.757ZM631.258 165.757H628.183L614.847 152.407H617.923L631.258 165.757ZM606.233 83.1944L603.977 80.9358L605.621 79.4982L606.234 79.9078V83.1944H606.233ZM606.233 90.5879L600.075 84.4268L601.72 82.9892L606.233 87.5083V90.5888V90.5879ZM606.233 98.1875L595.977 88.1231L597.614 86.6855L606.234 95.1069V98.1875H606.233ZM605.824 105.581L592.076 91.615L593.72 90.1765L606.234 102.707V105.377L605.825 105.582L605.824 105.581ZM601.924 109.072L588.182 95.3122L589.615 93.8746L603.568 107.635L601.924 109.072ZM598.023 112.77L584.281 98.8032L585.72 97.3656L599.667 111.125L598.023 112.77ZM594.129 116.261L580.175 102.5L581.819 100.857L595.773 114.823L594.129 116.261ZM590.024 119.957L576.282 105.991L577.919 104.554L591.667 118.52L590.024 119.957ZM586.129 123.654L572.176 109.687L573.82 108.25L587.766 122.01L586.129 123.654ZM582.229 127.145L568.282 113.179L569.919 111.742L583.873 125.708L582.229 127.145ZM578.334 130.637L564.381 116.671L566.025 115.233L579.972 129.199L578.334 130.637ZM574.229 134.334L560.276 120.368L561.92 118.93L575.872 132.896L574.229 134.334ZM570.328 138.031L556.381 123.859L558.025 122.422L571.972 136.388L570.328 138.032V138.031ZM566.434 141.523L552.277 127.556L554.125 125.913L568.078 140.084L566.434 141.522V141.523ZM553.51 75.7992L551.867 73.9511V70.8706L555.147 74.3616L553.509 75.7992H553.51ZM557.61 72.103L551.868 66.3524V63.2719L559.049 70.6653L557.61 72.103ZM561.306 68.611L551.868 58.959V55.8784L562.943 67.1743L561.306 68.611ZM563.973 63.4771L551.869 51.3585V48.2788L563.973 60.3957V63.4771ZM563.973 55.8775L551.869 43.7598V40.6784L563.973 52.7961V55.8775ZM563.973 48.2779L551.869 36.1602V33.0788L563.973 45.1965V48.2779ZM563.973 40.8836L551.869 28.7668V25.481L563.973 37.5978V40.8836ZM563.973 33.284L551.869 21.1672V18.0867L563.973 30.2035V33.284ZM563.973 25.6853L551.869 13.5676V10.4871L563.973 22.603V25.6853ZM562.535 145.012L548.383 131.046L550.021 129.608L564.179 143.574L562.535 145.012ZM558.64 148.709L544.483 134.538L546.126 133.099L560.073 147.271L558.641 148.709H558.64ZM554.534 152.405L540.377 138.234L542.021 136.797L556.178 150.763L554.534 152.406V152.405ZM550.64 155.897L536.483 141.726L538.126 140.289L552.278 154.46L550.64 155.897ZM546.739 159.389L532.583 145.218L534.225 143.781L548.383 157.951L546.739 159.389ZM542.839 163.086L528.483 148.915L530.12 147.478L544.277 161.649L542.839 163.086ZM538.74 166.783L524.582 152.405L526.226 150.969L540.377 165.345L538.74 166.783ZM535.46 169.864H534.225L520.688 156.103L522.12 154.666L536.483 168.836L535.46 169.864ZM519.045 153.433H516.377V5.55662H548.588V84.8347L639.057 1.44897H641.722V149.325H609.515V71.895L519.045 153.432V153.433Z" fill="#202020"></path><path d="M764.954 83.2306L827.847 5.95508H832.38L769.722 83.2306L836.017 165.051H831.477L764.954 83.2306ZM754.971 83.2306L817.856 5.95508H822.624L759.731 83.2306L826.026 165.051H821.258L754.971 83.2306ZM745.664 83.2306L807.865 5.95508H812.633L750.424 83.2306L815.813 165.051H811.046L745.664 83.2306ZM735.899 83.2306L798.329 5.95508H803.097L740.667 83.2306L806.051 165.051H801.283L735.899 83.2306ZM727.951 5.95508H731.588V76.8669L788.338 5.95508H792.878L731.588 82.3221V84.1381L795.612 165.051H791.063L731.587 89.8208V165.051H727.95V5.95508H727.951ZM719.782 5.95508H723.41V165.051H719.782V5.95508ZM711.605 5.95508H715.241V165.051H711.605V5.95508ZM703.435 5.95508H707.064V165.051H703.435V5.95508ZM695.258 5.95508H698.894V165.051H695.258V5.95508Z" fill="#202020"></path><path d="M840.731 91.8728H867.189C869.595 121.873 891.689 142.676 919.468 142.676C938.713 142.676 953.806 132.602 964.094 122.968L977 142.019C962.12 156.691 943.314 166.325 919.688 166.325C876.815 166.325 843.35 135.23 840.73 91.8728H840.731ZM919.909 5.81437C940.468 5.81437 959.501 12.8232 974.154 27.4941L961.028 45.888C949.003 35.5961 934.35 29.4645 919.249 29.4645C891.249 29.4645 869.824 50.4856 867.19 80.2664H840.732C843.571 36.6901 877.038 5.81348 919.91 5.81348L919.909 5.81437Z" fill="#202020"></path><path d="M349.572 199.954H364.092V230.598C367.329 230.272 369.519 229.436 370.665 228.094C371.809 226.751 373.575 223.02 375.962 216.897C378.97 209.106 381.995 204.259 385.036 202.36C388.043 200.462 392.902 199.512 399.604 199.512C399.932 199.512 400.635 199.496 401.714 199.464V210.218L399.653 210.169C396.677 210.169 394.503 210.536 393.129 211.274C391.755 212.01 390.643 213.131 389.793 214.637C388.943 216.144 387.685 219.237 386.016 223.918C385.133 226.408 384.178 228.486 383.147 230.156C382.116 231.825 380.293 233.397 377.678 234.869C380.915 235.787 383.588 237.636 385.697 240.419C387.807 243.202 390.12 247.131 392.639 252.206L402.449 271.948H385.38L376.795 253.334C376.664 253.074 376.385 252.566 375.961 251.813C375.796 251.551 375.192 250.422 374.146 248.425C371.494 243.396 370.15 240.502 364.091 240.419V271.947H349.571V199.954L349.572 199.954Z" fill="#202020"></path><path d="M441.611 199.955H491.986V271.948H477.468V212.133H455.836V242.876C455.836 251.683 455.541 257.83 454.953 261.316C454.364 264.803 452.933 267.521 450.661 269.468C448.387 271.417 444.832 272.391 439.992 272.391C438.291 272.391 435.201 272.226 430.72 271.9V260.653L433.959 260.703C436.999 260.703 439.044 260.294 440.09 259.475C441.137 258.657 441.659 256.644 441.659 253.435L441.611 241.059V199.956V199.955Z" fill="#202020"></path><path d="M532.965 199.955H546.552V247.886L575.691 199.955H590.159V271.949H576.572V224.95L547.481 271.949H532.965V199.955Z" fill="#202020"></path><path d="M630.841 271.949V199.955H645.364V228.291H673.812V199.955H688.336V271.949H673.812V240.47H645.364V271.949H630.841Z" fill="#202020"></path><path d="M729.363 199.955H742.945V247.886L772.083 199.955H786.554V271.949H772.972V224.95L743.878 271.949H729.363V199.955Z" fill="#202020"></path><path d="M827.232 271.949V199.955H841.756V228.291H870.203V199.955H884.727V271.949H870.203V240.47H841.756V271.949H827.232Z" fill="#202020"></path><path d="M926.286 199.955H975.005V212.036H940.81V271.949H926.286V199.955Z" fill="#202020"></path></svg> 