<?xml version="1.0" encoding="UTF-8"?> <svg xmlns="http://www.w3.org/2000/svg" width="22" height="22" viewBox="0 0 22 22" fill="none"><path d="M10.75 0C4.81294 0 0 4.81294 0 10.75C0 16.6871 4.81294 21.5 10.75 21.5C16.6871 21.5 21.5 16.6871 21.5 10.75C21.5 4.81294 16.6871 0 10.75 0ZM6.88672 4.27008C7.1082 4.25702 7.3084 4.3894 7.46018 4.62438L8.9299 7.4116C9.08465 7.74188 8.99671 8.09552 8.76587 8.3315L8.09269 9.00468C8.05114 9.06162 8.0238 9.12575 8.02314 9.19627C8.2813 10.1956 9.0644 11.1173 9.75534 11.7512C10.4462 12.3851 11.1888 13.2434 12.1528 13.4467C12.2719 13.4799 12.4179 13.4918 12.5032 13.4126L13.2853 12.616C13.5552 12.4114 13.9458 12.3122 14.234 12.4796H14.2472L16.8992 14.0451C17.2885 14.2891 17.3288 14.7608 17.0501 15.0477L15.2235 16.8599C14.9537 17.1365 14.5954 17.2295 14.2472 17.2299C12.7073 17.1838 11.2523 16.428 10.0572 15.6513C8.09547 14.2242 6.29604 12.4541 5.16636 10.3156C4.7331 9.41892 4.22414 8.27476 4.27271 7.27386C4.27705 6.89733 4.37892 6.52844 4.64409 6.28574L6.47075 4.45908C6.61304 4.338 6.75381 4.27793 6.88672 4.27008Z" fill="#FFC100"></path></svg> 