<?xml version="1.0" encoding="UTF-8"?> <svg xmlns="http://www.w3.org/2000/svg" width="22" height="22" viewBox="0 0 22 22" fill="none"><path d="M10.75 0C4.816 0 0 4.816 0 10.75C0 16.684 4.816 21.5 10.75 21.5C16.684 21.5 21.5 16.684 21.5 10.75C21.5 4.816 16.684 0 10.75 0ZM15.738 7.31C15.5767 9.0085 14.878 13.1365 14.5233 15.0393C14.3728 15.8455 14.0718 16.1143 13.7923 16.1465C13.1688 16.2003 12.6958 15.738 12.0938 15.3403C11.1478 14.7168 10.6103 14.3298 9.6965 13.7278C8.63225 13.029 9.32025 12.642 9.933 12.0185C10.0943 11.8573 12.8463 9.3525 12.9 9.12675C12.9075 9.09256 12.9065 9.05706 12.8971 9.02334C12.8877 8.98962 12.8703 8.95869 12.8463 8.93325C12.7818 8.8795 12.6958 8.901 12.6205 8.91175C12.5238 8.93325 11.0188 9.933 8.084 11.911C7.654 12.2013 7.267 12.3517 6.923 12.341C6.536 12.3302 5.805 12.126 5.25675 11.9432C4.5795 11.7282 4.05275 11.61 4.09575 11.2338C4.11725 11.0403 4.386 10.8467 4.89125 10.6425C8.03025 9.27725 10.1158 8.37425 11.1585 7.94425C14.147 6.69725 14.7598 6.48225 15.1683 6.48225C15.2543 6.48225 15.4585 6.50375 15.5875 6.61125C15.695 6.69725 15.7272 6.8155 15.738 6.9015C15.7272 6.966 15.7487 7.1595 15.738 7.31Z" fill="#03B0DC"></path></svg> 