<?xml version="1.0" encoding="UTF-8"?> <svg xmlns="http://www.w3.org/2000/svg" width="40" height="40" viewBox="0 0 40 40" fill="none"><path fill-rule="evenodd" clip-rule="evenodd" d="M5.85938 5.85781C9.60625 2.10844 14.6969 0 20 0C25.3031 0 30.3937 2.10844 34.1406 5.85781C37.8906 9.60719 40 14.6978 40 20C40 25.3022 37.8906 30.3928 34.1406 34.1422C30.3937 37.8916 25.3031 40 20 40C14.6969 40 9.60625 37.8916 5.85938 34.1422C2.10938 30.3928 0 25.3022 0 20C0.00107336 14.6956 2.10866 9.6087 5.85938 5.85781ZM20.7159 14.765C18.7722 15.5742 14.8846 17.2487 9.0534 19.7887C8.10652 20.1653 7.60965 20.5337 7.5659 20.8937C7.48895 21.5019 8.25058 21.7417 9.28548 22.0677C9.42742 22.1124 9.57451 22.1587 9.72527 22.2078C10.7471 22.5397 12.1221 22.9281 12.8346 22.9434C13.4846 22.9575 14.2065 22.6903 15.0034 22.1422C20.4534 18.465 23.2628 16.6062 23.4409 16.5662C23.5659 16.5381 23.7378 16.5025 23.8534 16.6066C23.9722 16.7103 23.9597 16.9072 23.9471 16.96C23.8734 17.2812 20.8929 20.0523 19.3419 21.4943C18.8543 21.9477 18.508 22.2696 18.4378 22.3428C18.2808 22.5059 18.1208 22.6601 17.967 22.8084C17.0186 23.7226 16.3071 24.4084 18.0065 25.5281C18.8305 26.0709 19.4882 26.5189 20.1456 26.9666C20.8519 27.4477 21.5577 27.9285 22.469 28.5262C22.7034 28.6798 22.9272 28.8393 23.1451 28.9947C23.9734 29.5851 24.7174 30.1155 25.6378 30.0309C26.1722 29.9819 26.7253 29.4794 27.0034 27.9806C27.6659 24.4384 28.969 16.7641 29.269 13.6016C29.2972 13.3247 29.2628 12.97 29.2378 12.8144C29.2097 12.6586 29.1534 12.4367 28.9534 12.2726C28.7128 12.0781 28.344 12.0372 28.1784 12.0398C27.4253 12.0534 26.2722 12.4547 20.7159 14.765Z" fill="url(#paint0_linear_175_6444)"></path><defs><linearGradient id="paint0_linear_175_6444" x1="2000" y1="0" x2="2000" y2="4000" gradientUnits="userSpaceOnUse"><stop stop-color="#2AABEE"></stop><stop offset="1" stop-color="#229ED9"></stop></linearGradient></defs></svg> 