<?xml version="1.0" encoding="UTF-8"?> <svg xmlns="http://www.w3.org/2000/svg" width="22" height="22" viewBox="0 0 22 22" fill="none"><path fill-rule="evenodd" clip-rule="evenodd" d="M10.7504 0C16.6874 0 21.5004 4.813 21.5004 10.75C21.5004 16.687 16.6874 21.5 10.7504 21.5C8.89044 21.5 7.14044 21.027 5.61344 20.195L0.873444 20.99C0.756614 21.0095 0.636827 21.001 0.523893 20.9653C0.410958 20.9296 0.308086 20.8677 0.2237 20.7846C0.139315 20.7014 0.0758152 20.5995 0.0384006 20.4871C0.000986017 20.3748 -0.00927953 20.2551 0.0084445 20.138L0.808445 14.848C0.272519 13.5483 -0.00204495 12.1558 0.000444487 10.75C0.000444487 4.813 4.81344 0 10.7504 0ZM6.69344 5.45C5.95844 5.45 5.34944 6.07 5.46344 6.836C5.67944 8.272 6.31744 10.918 8.21544 12.83C10.1994 14.829 13.0384 15.684 14.5754 16.021C15.3714 16.196 16.0504 15.566 16.0504 14.789V12.965C16.0505 12.9044 16.0321 12.8452 15.9979 12.7952C15.9636 12.7452 15.915 12.7068 15.8584 12.685L13.8984 11.932C13.8455 11.9118 13.788 11.9069 13.7324 11.918L11.7554 12.304C10.4804 11.644 9.70844 10.904 9.24544 9.789L9.61744 7.774C9.62741 7.72039 9.62257 7.66507 9.60344 7.614L8.86844 5.645C8.84711 5.5879 8.80889 5.53865 8.75887 5.50382C8.70885 5.46898 8.6494 5.45021 8.58844 5.45H6.69344Z" fill="#14AE5C"></path></svg> 