<svg width="27" height="26" viewBox="0 0 27 26" fill="none" xmlns="http://www.w3.org/2000/svg">
<path d="M26.6263 14.0361C26.6846 13.9774 26.7372 13.9134 26.7833 13.8448L26.8401 13.7404C26.8905 13.662 26.926 13.575 26.9448 13.4838L26.9753 13.3751C27.0082 13.2086 27.0082 13.0372 26.9753 12.8707L26.9404 12.7576L26.9011 12.6272C26.8804 12.5824 26.8571 12.5388 26.8313 12.4967L26.779 12.4054C26.7305 12.3334 26.675 12.2664 26.6132 12.2054L14.886 0.503404C14.7721 0.357437 14.6283 0.23729 14.4642 0.150934C14.3001 0.0645771 14.1195 0.0139845 13.9342 0.00251328C13.749 -0.00895793 13.5635 0.0189546 13.39 0.0843977C13.2164 0.149841 13.0588 0.251317 12.9276 0.382099C12.7964 0.512881 12.6946 0.669977 12.6289 0.842966C12.5632 1.01595 12.5352 1.20088 12.5468 1.38548C12.5583 1.57008 12.609 1.75013 12.6957 1.91368C12.7823 2.07724 12.9028 2.22056 13.0493 2.33414L22.5427 11.8096L1.30884 11.8096C0.96171 11.8096 0.628803 11.9471 0.383349 12.1917C0.137894 12.4364 -5.7838e-07 12.7682 -5.63256e-07 13.1142C-5.48132e-07 13.4602 0.137894 13.792 0.383349 14.0367C0.628803 14.2813 0.96171 14.4188 1.30884 14.4188L22.5427 14.4188L13.0493 23.8943C12.8533 24.1453 12.7561 24.4589 12.7759 24.7763C12.7957 25.0938 12.9311 25.393 13.1567 25.6179C13.3824 25.8428 13.6826 25.9778 14.0011 25.9975C14.3195 26.0172 14.6342 25.9203 14.886 25.725L26.6263 14.0361Z" fill="#202020"/>
</svg>
