<svg width="11" height="6" viewBox="0 0 11 6" fill="none" xmlns="http://www.w3.org/2000/svg">
<mask id="path-1-inside-1_148_799" fill="white">
<path d="M0 0H10.5302V5.26508H0V0Z"/>
</mask>
<g clip-path="url(#paint0_diamond_148_799_clip_path)" data-figma-skip-parse="true" mask="url(#path-1-inside-1_148_799)"><g transform="matrix(0.00526508 0 0 0.00526508 5.26508 0)"><rect x="0" y="0" width="1200" height="1200" fill="url(#paint0_diamond_148_799)" opacity="1" shape-rendering="crispEdges"/><rect x="0" y="0" width="1200" height="1200" transform="scale(1 -1)" fill="url(#paint0_diamond_148_799)" opacity="1" shape-rendering="crispEdges"/><rect x="0" y="0" width="1200" height="1200" transform="scale(-1 1)" fill="url(#paint0_diamond_148_799)" opacity="1" shape-rendering="crispEdges"/><rect x="0" y="0" width="1200" height="1200" transform="scale(-1)" fill="url(#paint0_diamond_148_799)" opacity="1" shape-rendering="crispEdges"/></g></g><path d="M0 0V-5.26508H-5.26508V0H0ZM10.5302 0H15.7952V-5.26508H10.5302V0ZM0 5.26508H10.5302V-5.26508H0V5.26508ZM5.26508 0V5.26508H15.7952V0H5.26508ZM5.26508 5.26508V0H-5.26508V5.26508H5.26508Z" data-figma-gradient-fill="{&#34;type&#34;:&#34;GRADIENT_DIAMOND&#34;,&#34;stops&#34;:[{&#34;color&#34;:{&#34;r&#34;:0.12549020349979401,&#34;g&#34;:0.11764705926179886,&#34;b&#34;:0.20392157137393951,&#34;a&#34;:1.0},&#34;position&#34;:0.99999988079071045},{&#34;color&#34;:{&#34;r&#34;:0.0,&#34;g&#34;:0.0,&#34;b&#34;:0.0,&#34;a&#34;:0.0},&#34;position&#34;:1.0}],&#34;stopsVar&#34;:[{&#34;color&#34;:{&#34;r&#34;:0.12549020349979401,&#34;g&#34;:0.11764705926179886,&#34;b&#34;:0.20392157137393951,&#34;a&#34;:1.0},&#34;position&#34;:0.99999988079071045},{&#34;color&#34;:{&#34;r&#34;:0.0,&#34;g&#34;:0.0,&#34;b&#34;:0.0,&#34;a&#34;:0.0},&#34;position&#34;:1.0}],&#34;transform&#34;:{&#34;m00&#34;:10.530155181884766,&#34;m01&#34;:0.0,&#34;m02&#34;:0.0,&#34;m10&#34;:0.0,&#34;m11&#34;:10.530155181884766,&#34;m12&#34;:-5.2650775909423828},&#34;opacity&#34;:1.0,&#34;blendMode&#34;:&#34;NORMAL&#34;,&#34;visible&#34;:true}" mask="url(#path-1-inside-1_148_799)"/>
<defs>
<clipPath id="paint0_diamond_148_799_clip_path"><path d="M0 0V-5.26508H-5.26508V0H0ZM10.5302 0H15.7952V-5.26508H10.5302V0ZM0 5.26508H10.5302V-5.26508H0V5.26508ZM5.26508 0V5.26508H15.7952V0H5.26508ZM5.26508 5.26508V0H-5.26508V5.26508H5.26508Z" mask="url(#path-1-inside-1_148_799)"/></clipPath><linearGradient id="paint0_diamond_148_799" x1="0" y1="0" x2="500" y2="500" gradientUnits="userSpaceOnUse">
<stop offset="1" stop-color="#201E34"/>
<stop offset="1" stop-opacity="0"/>
</linearGradient>
</defs>
</svg>
