<svg width="27" height="26" viewBox="0 0 27 26" fill="none" xmlns="http://www.w3.org/2000/svg">
<path d="M0.373714 11.9639C0.315402 12.0226 0.262814 12.0866 0.216655 12.1552L0.159938 12.2596C0.109495 12.338 0.0739994 12.425 0.0552325 12.5162L0.024692 12.6249C-0.00823288 12.7914 -0.00823289 12.9628 0.024692 13.1293L0.0595964 13.2424L0.0988611 13.3728C0.119636 13.4176 0.142943 13.4612 0.168666 13.5033L0.221019 13.5946C0.269475 13.6666 0.325012 13.7336 0.386806 13.7946L12.114 25.4966C12.2279 25.6426 12.3717 25.7627 12.5358 25.8491C12.6999 25.9354 12.8805 25.986 13.0657 25.9975C13.251 26.009 13.4365 25.981 13.61 25.9156C13.7836 25.8502 13.9412 25.7487 14.0724 25.6179C14.2036 25.4871 14.3054 25.33 14.3711 25.157C14.4367 24.984 14.4648 24.7991 14.4532 24.6145C14.4417 24.4299 14.391 24.2499 14.3043 24.0863C14.2177 23.9228 14.0972 23.7794 13.9507 23.6659L4.45729 14.1904L25.6912 14.1904C26.0383 14.1904 26.3712 14.0529 26.6166 13.8083C26.8621 13.5636 27 13.2318 27 12.8858C27 12.5398 26.8621 12.208 26.6167 11.9633C26.3712 11.7187 26.0383 11.5812 25.6912 11.5812L4.45729 11.5812L13.9507 2.10573C14.1467 1.85475 14.2439 1.54106 14.2241 1.22366C14.2043 0.906247 14.0689 0.606975 13.8433 0.3821C13.6176 0.157226 13.3174 0.0222368 12.9989 0.00251248C12.6805 -0.0172118 12.3658 0.0796866 12.114 0.27499L0.373714 11.9639Z" fill="#202020"/>
</svg>
