<svg width="264" height="102" viewBox="0 0 264 102" fill="none" xmlns="http://www.w3.org/2000/svg">
<path d="M253.57 40.16H249.82V33.16H253.57V24.08H250.4V17.08H253.57V11.7H235.48V10.45H253.57V9.08H232.2V6.58H253.62V3H219.46L215.63 8.45H222.29V9.7H214.75L213.75 11.08H220.25V13.58H212L179 60.63V60.9H216.57V62.78H179.05V67.33H244.31V68.58H179.05V87.24H220.73V101.89H253.57V87.24H263.2V58.67H253.61L253.57 40.16ZM190.9 57.74H186.57V53.4H190.9V57.74ZM201.48 54.63H194.48V47.63H201.48V54.63ZM223.13 58.63H213.02L223.13 43.18V58.63ZM223.32 6.54H230.32V13.54H223.32V6.54ZM234.32 20.54H230V16.25H234.32V20.54ZM246.48 32.45H242.15V28.17H246.48V32.45Z" fill="#00CAD1"/>
<path d="M151 61.5H172.4C172.785 57.9832 172.975 54.4478 172.97 50.91C172.97 40.96 171.61 32.37 168.97 25.22H138.12V20.35H166.84C160.17 7.05 148.16 0 131.47 0C121.64 0 113.47 2.45 106.99 7.18H146.79V9.68H104C94.87 18.18 90 32.13 90 50.91C90 60.91 91.37 69.54 94 76.72H122.72V81.6H96.11C96.7805 82.9267 97.5181 84.2184 98.32 85.47H142.12V88H100.12C107.12 97.17 117.72 102 131.49 102C154.62 102 168.76 88.41 172.14 63.42H151V61.5ZM149.26 11.68H153.55V16H149.26V11.68ZM131.47 71C123.55 71 122.05 63.94 122.05 50.92C122.05 37.9 123.55 31 131.47 31C139.39 31 140.75 38 140.75 50.94C140.75 63.88 139.27 71 131.47 71Z" fill="#00CAD1"/>
<path d="M77.27 73.12H84.09V55.67H74.52V44.67H68.52V37.67H74.52V28.62H69.14V21.62H74.52V16.25H54.21V15H74.52V13.62H50.88V11.12H74.52V0H40.41L31.29 13H41.03V14.25H30.41L29.41 15.62H38.99V18.12H27.7L0 57.63V65.4H35.36V67.28H0V71.83H63.09V73.08H0.0900002V84.24H41.68V98.89H74.52V84.24H84.09V78H77.27V73.12ZM42.09 11.12H49.09V18.12H42.09V11.12ZM9.63 62.29H5.3V57.96H9.63V62.29ZM20.21 59.17H13.21V52.17H20.21V59.17ZM44.09 55.67H33.97L44.09 40.22V55.67ZM53.09 25.12H48.72V20.79H53.09V25.12ZM65.2 37.04H60.87V32.71H65.2V37.04Z" fill="#00CAD1"/>
</svg>
